<?xml version="1.0" standalone="no"?>
<!DOCTYPE svg PUBLIC "-//W3C//DTD SVG 20010904//EN"
 "http://www.w3.org/TR/2001/REC-SVG-20010904/DTD/svg10.dtd">
<svg version="1.0" xmlns="http://www.w3.org/2000/svg"
 width="700.000000pt" height="700.000000pt" viewBox="0 0 700.000000 700.000000"
 preserveAspectRatio="xMidYMid meet">
<metadata>
Created by potrace 1.11, written by Peter Selinger 2001-2013
</metadata>
<g transform="translate(0.000000,700.000000) scale(0.100000,-0.100000)"
fill="#000000" stroke="none">
<path d="M3268 6995 c-1 -1 -41 -6 -88 -9 -47 -3 -96 -8 -110 -10 -14 -3 -47
-7 -75 -10 -27 -3 -86 -13 -129 -21 -44 -8 -93 -18 -110 -21 -114 -19 -368
-96 -531 -159 -364 -141 -743 -370 -1025 -619 -155 -138 -426 -430 -513 -556
-160 -230 -237 -359 -332 -555 -121 -248 -231 -560 -270 -766 -3 -13 -11 -58
-20 -99 -8 -41 -17 -88 -19 -105 -13 -77 -17 -105 -21 -141 -2 -21 -7 -73 -12
-114 -15 -146 -8 -615 11 -717 2 -10 7 -43 10 -74 4 -31 9 -67 11 -80 3 -13 7
-39 10 -58 2 -18 7 -41 9 -50 3 -9 8 -29 11 -46 56 -324 219 -741 426 -1094
52 -90 189 -285 273 -391 90 -112 334 -368 426 -445 205 -173 323 -257 526
-377 363 -215 797 -371 1199 -432 22 -3 51 -8 65 -11 97 -19 278 -30 485 -30
176 0 388 10 403 19 4 2 34 6 67 10 59 6 96 12 145 21 14 3 39 8 55 11 173 31
491 129 680 209 819 349 1488 1013 1834 1820 23 55 46 109 51 120 23 49 102
295 125 387 41 161 77 342 90 455 28 237 28 689 0 887 -22 158 -24 170 -50
291 -92 427 -247 803 -483 1170 -56 87 -145 214 -177 252 -5 7 -14 18 -20 25
-138 182 -410 448 -625 611 -41 31 -79 61 -85 65 -77 61 -371 235 -510 302
-84 40 -274 120 -295 125 -8 2 -53 17 -100 34 -192 69 -479 133 -695 157 -33
3 -73 8 -90 11 -35 5 -521 13 -527 8z"/>
</g>
</svg>
